<?xml version="1.0" standalone="no"?>
<!DOCTYPE svg PUBLIC "-//W3C//DTD SVG 20010904//EN"
 "http://www.w3.org/TR/2001/REC-SVG-20010904/DTD/svg10.dtd">
<svg version="1.0" xmlns="http://www.w3.org/2000/svg"
 width="300.000000pt" height="300.000000pt" viewBox="0 0 300.000000 300.000000"
 preserveAspectRatio="xMidYMid meet">
<metadata>
Created by potrace 1.10, written by Peter Selinger 2001-2011
</metadata>
<g transform="translate(0.000000,300.000000) scale(0.100000,-0.100000)"
fill="#000000" stroke="none">
<path d="M407 2514 c-14 -14 -7 -35 11 -32 9 2 17 10 17 17 0 16 -18 25 -28
15z"/>
<path d="M406 2438 c-3 -7 -7 -35 -10 -63 -10 -84 -46 -96 -82 -27 l-19 37 -3
-47 c-2 -25 -9 -51 -16 -57 -14 -12 -46 -5 -46 10 0 5 -5 9 -11 9 -7 0 -8 -11
-3 -32 4 -18 10 -50 13 -71 l6 -39 180 1 180 0 14 66 c14 65 9 96 -10 62 -6
-9 -19 -17 -29 -17 -16 0 -19 9 -22 58 l-3 57 -30 -44 c-16 -25 -35 -46 -41
-48 -18 -6 -44 61 -44 111 0 42 -15 63 -24 34z m30 -153 c10 -8 35 -15 54 -15
36 0 70 -26 70 -55 0 -19 -62 -27 -185 -23 -92 3 -100 5 -103 24 -4 28 30 56
75 61 21 2 42 8 48 14 12 12 18 12 41 -6z"/>
<path d="M544 2425 c-3 -8 -3 -19 0 -24 9 -13 36 -2 36 14 0 19 -30 27 -36 10z"/>
<path d="M260 2410 c0 -11 7 -20 15 -20 8 0 15 9 15 20 0 11 -7 20 -15 20 -8
0 -15 -9 -15 -20z"/>
<path d="M183 2344 c-7 -19 2 -28 22 -21 19 8 19 23 0 31 -9 3 -18 -1 -22 -10z"/>
<path d="M620 2340 c0 -11 7 -20 15 -20 8 0 15 9 15 20 0 11 -7 20 -15 20 -8
0 -15 -9 -15 -20z"/>
<path d="M235 2049 l0 -70 35 3 35 3 3 -334 c2 -238 -1 -338 -9 -347 -14 -17
-85 -19 -95 -3 -4 6 -6 47 -5 91 l2 79 -57 -3 -58 -3 3 -105 c3 -118 16 -151
73 -185 27 -16 51 -20 133 -20 116 0 165 18 202 74 23 34 23 37 23 397 l0 363
35 -6 35 -6 0 72 0 71 -177 0 -178 0 0 -71z m310 10 c5 -16 -1 -28 -24 -50
-27 -24 -31 -35 -32 -81 0 -29 -1 -187 -2 -350 -2 -282 -3 -298 -23 -325 -32
-44 -85 -65 -162 -65 -79 -1 -133 19 -158 57 -24 37 -27 170 -4 170 9 0 16
-11 18 -30 7 -79 13 -96 45 -115 44 -27 71 -25 109 9 l33 29 -2 339 -2 338
-31 25 c-29 24 -38 49 -23 63 3 4 62 7 129 7 116 0 123 -1 129 -21z"/>
<path d="M680 2049 l0 -70 28 3 27 3 3 -353 2 -354 -30 7 -30 7 0 -71 0 -71
166 2 166 3 0 65 0 65 -31 -3 -31 -2 0 150 c0 91 4 150 10 150 5 0 17 14 25
31 9 17 19 28 22 25 3 -3 23 -54 43 -113 33 -95 58 -162 85 -226 7 -16 3 -18
-25 -15 l-32 3 0 -65 0 -65 151 -5 c83 -3 151 -3 151 0 1 3 2 34 3 69 2 55 -1
64 -18 71 -11 5 -28 29 -39 57 -10 26 -25 62 -32 78 -41 95 -94 225 -94 229 0
3 -14 35 -31 71 l-30 64 83 96 c79 91 84 95 123 95 l40 0 0 70 0 70 -155 0
-155 0 0 -71 0 -71 43 7 c44 7 54 -3 25 -26 -22 -19 -171 -197 -175 -211 -2
-6 -8 -9 -14 -6 -5 4 -8 58 -6 126 l3 120 30 -2 30 -1 2 68 2 67 -167 0 -168
0 0 -71z m290 6 c0 -13 -11 -35 -25 -47 -24 -22 -25 -30 -26 -132 0 -98 2
-111 20 -130 20 -19 23 -20 49 -6 32 19 192 207 192 227 0 8 -14 27 -31 42
-19 17 -29 36 -27 47 3 17 15 19 109 22 91 2 108 0 113 -14 8 -22 1 -31 -42
-53 -36 -19 -154 -148 -180 -198 -17 -31 -7 -60 104 -320 41 -95 74 -175 74
-178 0 -4 11 -23 25 -43 48 -71 30 -88 -95 -86 -83 1 -95 3 -107 21 -12 18
-11 24 12 52 23 27 26 37 20 73 -4 24 -13 54 -21 68 -7 14 -23 57 -35 95 -45
138 -74 172 -124 145 -45 -24 -54 -57 -56 -202 -1 -136 6 -170 36 -182 9 -3
15 -18 15 -35 0 -29 0 -29 -67 -33 -164 -8 -204 7 -166 60 43 60 43 56 43 393
l0 326 -29 37 c-18 23 -27 44 -24 56 5 19 14 20 124 20 l119 0 0 -25z"/>
<path d="M1480 2049 l0 -70 28 3 27 3 0 -350 0 -350 -27 3 -28 3 0 -71 0 -70
165 0 165 0 0 70 0 70 -31 -2 -31 -3 2 140 c1 127 3 143 23 172 24 35 47 43
47 16 0 -20 99 -293 112 -310 12 -15 -5 -24 -36 -20 -16 2 -19 -6 -20 -66 l-1
-67 153 0 152 0 0 70 c0 61 -2 70 -18 70 -12 0 -23 13 -31 38 -17 44 -157 383
-178 429 l-15 32 78 93 c43 51 80 95 81 97 2 3 21 4 43 3 l40 -3 0 71 0 70
-152 0 -153 0 0 -71 0 -71 43 7 c23 3 42 3 42 -1 0 -3 -20 -27 -45 -53 -53
-55 -165 -194 -160 -199 17 -17 164 132 208 211 l18 32 -36 31 c-38 33 -45 58
-19 68 9 3 60 6 115 6 99 0 99 0 99 -25 0 -18 -8 -28 -33 -38 -17 -8 -57 -42
-87 -77 -30 -34 -60 -68 -65 -74 -48 -51 -54 -82 -28 -142 9 -22 17 -41 18
-44 1 -3 7 -18 15 -35 16 -36 49 -113 60 -140 67 -162 94 -223 106 -236 21
-23 18 -79 -3 -80 -10 0 -53 0 -95 0 -123 -1 -141 12 -93 69 14 17 25 35 25
42 0 20 -80 251 -103 297 -32 66 -76 67 -122 5 -18 -24 -20 -43 -20 -170 l0
-144 28 -23 c26 -24 36 -58 18 -69 -13 -9 -216 -10 -230 -2 -18 11 -13 36 14
68 29 34 27 6 25 421 l-1 289 -26 39 c-41 62 -32 69 102 69 98 0 117 -3 122
-16 3 -9 1 -24 -6 -33 -53 -73 -52 -72 -49 -173 4 -105 20 -147 32 -83 4 20 6
76 5 123 l-2 87 32 -3 31 -3 0 70 0 71 -165 0 -165 0 0 -71z"/>
<path d="M2280 2049 l0 -70 28 3 27 3 3 -353 2 -354 -30 7 -30 7 0 -72 0 -71
101 3 101 3 0 65 0 65 -31 -3 -31 -2 0 199 c0 131 -4 202 -11 206 -19 12 -23
-4 -23 -89 -1 -47 -4 -87 -7 -90 -3 -3 -6 34 -6 82 0 48 -1 155 -2 237 l-1
151 -30 32 c-16 18 -30 37 -30 41 0 20 30 31 87 31 l62 0 24 -42 c14 -24 52
-92 86 -151 33 -59 61 -110 61 -112 0 -2 22 -42 50 -89 45 -76 80 -109 97 -92
4 3 -1 6 -10 6 -9 0 -17 6 -17 14 0 15 -34 82 -136 266 -38 69 -83 151 -99
182 l-30 58 -102 0 -103 0 0 -71z m106 -696 c-4 -42 12 -79 43 -105 34 -29 23
-55 -24 -58 -76 -5 -85 -2 -85 30 0 17 4 30 10 30 18 0 42 49 42 87 0 36 4 53
13 53 2 0 3 -17 1 -37z"/>
<path d="M2700 2049 l0 -71 33 4 32 3 5 -177 c3 -120 9 -181 17 -189 14 -14
18 -6 26 41 2 14 5 -61 6 -167 l1 -192 30 -34 c31 -35 38 -61 20 -72 -5 -3
-31 -7 -56 -9 -64 -4 -79 12 -164 177 -93 182 -168 318 -188 340 -18 20 -49
25 -33 5 6 -7 48 -87 95 -178 46 -91 109 -212 139 -270 l55 -105 97 -5 c53 -3
99 -3 101 -1 2 2 4 35 4 73 l0 68 -30 -2 -30 -3 0 350 -1 350 31 -3 30 -3 0
70 0 71 -110 0 -110 0 0 -71z m178 7 c2 -10 -9 -32 -26 -50 -17 -17 -32 -44
-35 -61 l-4 -30 -2 32 c-1 23 -9 39 -31 54 -33 25 -42 42 -33 64 4 13 19 15
67 13 50 -2 61 -6 64 -22z"/>
<path d="M75 1070 c-3 -5 -3 -14 0 -20 7 -11 2837 -15 2848 -4 3 3 3 12 0 20
-4 12 -216 14 -1423 14 -935 0 -1421 -3 -1425 -10z"/>
<path d="M2408 973 c-19 -5 -25 -43 -8 -43 6 0 10 -8 10 -19 0 -14 -6 -17 -24
-14 -21 4 -26 0 -35 -33 -13 -48 -13 -50 -1 -96 10 -35 12 -36 56 -36 39 0 44
2 37 16 -4 10 -8 65 -8 125 0 59 -2 106 -5 106 -3 -1 -13 -3 -22 -6z m0 -153
c3 -41 -11 -66 -30 -54 -10 6 -11 88 -1 98 15 15 28 -3 31 -44z"/>
<path d="M2474 966 c-8 -22 3 -49 19 -43 6 2 12 14 12 27 0 27 -22 39 -31 16z"/>
<path d="M2637 974 c-10 -11 -8 -52 3 -59 13 -8 25 44 13 56 -5 5 -12 6 -16 3z"/>
<path d="M80 957 c0 -7 10 -33 21 -58 26 -52 36 -123 20 -133 -25 -16 -11 -36
25 -36 31 0 35 3 29 18 -22 50 -15 96 26 174 16 31 11 50 -13 46 -19 -2 -22
-10 -23 -45 -1 -23 -4 -46 -8 -49 -13 -14 -22 8 -20 52 1 42 0 44 -28 44 -17
0 -29 -5 -29 -13z"/>
<path d="M630 950 c-14 -26 -13 -87 3 -99 6 -6 25 -21 41 -34 20 -16 27 -29
23 -40 -10 -26 -35 -20 -52 13 -18 35 -40 41 -31 8 3 -13 6 -32 6 -44 0 -17 7
-21 40 -22 45 -2 60 15 60 72 0 28 -7 40 -40 66 -43 34 -49 47 -24 57 11 4 23
-2 35 -18 22 -30 32 -21 24 23 -6 31 -10 35 -41 36 -24 1 -37 -4 -44 -18z"/>
<path d="M1616 951 c-23 -26 -38 -94 -30 -139 10 -56 30 -82 64 -82 20 0 34 7
44 23 62 98 -8 276 -78 198z m65 -48 c14 -37 5 -111 -15 -132 -16 -15 -18 -15
-32 3 -14 20 -19 110 -8 140 10 26 43 19 55 -11z"/>
<path d="M2011 933 c-6 -20 -8 -40 -5 -45 8 -13 24 1 24 23 0 10 6 19 14 19
11 0 13 -17 10 -81 -2 -45 -8 -87 -14 -93 -13 -17 -3 -26 32 -26 26 0 38 17
22 33 -11 11 -13 167 -2 167 5 0 12 -9 15 -20 9 -33 26 -23 19 11 -3 17 -6 35
-6 40 0 5 -22 9 -50 9 -48 0 -49 -1 -59 -37z"/>
<path d="M2543 923 c-6 -21 -9 -63 -6 -93 7 -91 11 -100 38 -100 28 0 35 27
10 36 -11 4 -15 21 -15 56 0 28 4 47 9 43 17 -10 24 18 8 30 -10 7 -17 24 -17
39 0 38 -13 32 -27 -11z"/>
<path d="M236 878 c-19 -26 -21 -87 -4 -123 17 -38 61 -35 78 5 14 34 8 103
-10 125 -18 22 -47 18 -64 -7z m49 -64 c0 -37 -4 -49 -15 -49 -17 0 -25 43
-15 82 10 42 30 20 30 -33z"/>
<path d="M339 893 c-1 -4 0 -12 2 -18 1 -5 5 -39 8 -75 l6 -65 48 -2 c43 -2
48 0 41 15 -5 9 -9 45 -10 80 -2 70 -5 77 -30 68 -13 -5 -15 -9 -6 -18 15 -15
16 -108 2 -108 -22 0 -25 7 -25 65 -1 48 -4 61 -18 63 -9 2 -18 0 -18 -5z"/>
<path d="M468 889 c-9 -6 -9 -13 1 -32 13 -25 11 -75 -4 -109 -6 -15 -2 -18
24 -18 31 0 43 21 21 35 -5 3 -10 22 -10 42 0 26 5 36 20 40 12 3 20 14 20 27
0 18 -6 23 -30 23 -16 0 -35 -4 -42 -8z"/>
<path d="M746 828 c3 -40 7 -78 9 -85 5 -17 95 -15 95 2 0 8 -5 17 -11 21 -8
4 -10 28 -6 70 6 58 5 64 -13 64 -22 0 -39 -22 -22 -28 18 -6 15 -99 -3 -106
-17 -6 -18 -2 -15 77 2 51 0 57 -18 57 -20 0 -21 -5 -16 -72z"/>
<path d="M879 878 c-15 -28 -15 -99 0 -127 22 -40 71 -22 71 26 0 12 -3 12
-17 -2 -16 -16 -17 -16 -30 1 -18 24 -16 69 3 84 13 11 16 10 21 -8 7 -27 23
-29 23 -3 0 53 -48 72 -71 29z"/>
<path d="M990 886 c-16 -21 -17 -120 -1 -140 21 -25 56 -20 69 9 9 20 9 25 -3
25 -7 0 -17 -5 -21 -12 -5 -7 -11 -5 -21 7 -15 21 -17 63 -4 84 10 16 31 6 31
-15 0 -8 4 -14 9 -14 18 0 21 18 10 44 -14 29 -49 35 -69 12z"/>
<path d="M1094 865 c-18 -44 -18 -69 2 -106 17 -34 49 -37 68 -7 13 21 0 36
-16 20 -8 -8 -15 -9 -25 -1 -23 20 -15 39 17 39 26 0 30 4 30 26 0 68 -51 88
-76 29z"/>
<path d="M1201 879 c-11 -32 -3 -56 26 -79 18 -14 23 -25 18 -37 -6 -16 -8
-16 -25 5 -21 25 -32 17 -23 -17 4 -18 12 -21 37 -19 27 3 31 7 34 38 3 29 -2
39 -29 62 -34 29 -33 51 1 30 27 -17 32 -15 28 11 -4 32 -55 37 -67 6z"/>
<path d="M1301 881 c-18 -32 -13 -50 21 -81 23 -22 29 -33 21 -41 -8 -8 -15
-5 -25 10 -18 26 -27 19 -20 -15 4 -21 9 -25 36 -22 27 3 31 7 34 38 3 29 -2
39 -29 62 -34 29 -33 51 1 30 27 -17 32 -15 28 11 -4 30 -52 37 -67 8z"/>
<path d="M1739 893 c-1 -5 0 -12 2 -18 1 -5 5 -39 8 -75 l6 -65 48 -2 c43 -2
48 0 41 15 -4 9 -10 47 -12 85 -3 58 -6 67 -23 67 -20 0 -26 -24 -9 -35 15 -9
12 -81 -3 -94 -21 -17 -27 -3 -27 66 0 49 -3 63 -15 63 -8 0 -16 -3 -16 -7z"/>
<path d="M1863 883 c-3 -7 -1 -19 4 -26 13 -16 14 -85 2 -93 -21 -13 -8 -34
21 -34 30 0 42 21 20 35 -5 3 -10 24 -10 46 0 32 3 39 20 39 14 0 20 7 20 24
0 21 -4 24 -36 23 -20 -1 -38 -7 -41 -14z"/>
<path d="M2150 885 c-10 -12 -10 -18 0 -30 12 -15 10 -75 -4 -107 -7 -15 -3
-18 23 -18 30 0 41 17 24 34 -4 4 -9 25 -10 47 -1 33 1 39 18 39 14 0 19 7 19
25 0 26 -24 35 -33 13 -4 -10 -6 -10 -6 0 -1 16 -16 15 -31 -3z"/>
<path d="M2246 885 c-9 -25 -7 -45 4 -45 6 0 10 7 10 15 0 8 7 15 15 15 26 0
16 -34 -15 -52 -22 -13 -30 -24 -30 -46 0 -37 18 -56 38 -40 10 9 18 9 32 0
21 -13 36 0 23 21 -4 6 -10 41 -13 77 -5 61 -7 65 -31 68 -17 2 -29 -3 -33
-13z m35 -118 c-8 -8 -14 -8 -22 0 -7 7 -5 16 8 28 17 18 18 18 21 1 2 -10 -1
-23 -7 -29z"/>
<path d="M2470 885 c-10 -12 -10 -18 0 -30 12 -15 10 -75 -4 -107 -7 -15 -3
-18 24 -18 27 0 31 3 24 18 -4 9 -10 47 -12 85 -4 68 -10 79 -32 52z"/>
<path d="M2633 893 c-9 -3 -11 -21 -6 -64 4 -38 2 -63 -6 -72 -14 -17 -4 -27
27 -27 20 0 23 4 18 23 -3 12 -6 50 -6 85 0 61 -2 66 -27 55z"/>
<path d="M2700 881 c-5 -11 -10 -41 -10 -66 0 -59 14 -85 45 -85 30 0 45 26
45 79 0 60 -15 91 -44 91 -15 0 -30 -8 -36 -19z m55 -51 c8 -39 -11 -76 -31
-59 -17 14 -19 70 -2 87 15 15 25 7 33 -28z"/>
<path d="M2808 889 c-10 -7 -11 -12 0 -29 14 -24 16 -86 2 -95 -5 -3 -10 -12
-10 -20 0 -10 15 -14 61 -14 53 1 60 3 53 17 -4 9 -10 46 -13 82 l-6 65 -37 1
c-20 1 -42 -3 -50 -7z m65 -79 c0 -54 -5 -66 -22 -55 -15 9 -14 88 1 103 17
17 21 9 21 -48z"/>
<path d="M1454 825 c-8 -20 4 -35 27 -35 14 0 19 7 19 25 0 18 -5 25 -20 25
-11 0 -23 -7 -26 -15z"/>
</g>
</svg>
